<svg width="60" height="82" viewBox="0 0 60 82" fill="none" xmlns="http://www.w3.org/2000/svg">
<g clip-path="url(#clip0_44_107)">
<path d="M0 0H8.59333V3.63825H3.59333V7.2765H8.59333V10.9148H0V0ZM10.31 0H18.9067V3.16575H13.9067V3.79688H18.9067V11.0734H10.31V7.75237H15.31V7.11788H10.31V0ZM20.6267 0H29.2167V3.16575H24.2167V3.79688H29.2167V11.0734H20.6267V7.75237H25.6267V7.11788H20.6267V0Z" fill="#282119"/>
<path fill-rule="evenodd" clip-rule="evenodd" d="M29.97 81.1535L6.82333 74.6465L0 16.0734H60L53.18 74.6397L29.97 81.1535ZM13.49 42.5874L14.1267 49.7694H38.7167L37.8933 59.0844L29.98 61.2511H29.9733L22.0733 59.0911L21.5667 53.3637H14.4433L15.4367 64.643L29.97 68.7267L44.5267 64.643L46.3 44.5145L46.4733 42.5874L47.7533 28.0445H12.2133L12.86 35.2299H39.98L39.3333 42.5874H13.49Z" fill="#282119"/>
</g>
<defs>
<clipPath id="clip0_44_107">
<rect width="60" height="81.1535" fill="white"/>
</clipPath>
</defs>
</svg>
