<svg width="40" height="40" viewBox="0 0 40 40" fill="none" xmlns="http://www.w3.org/2000/svg">
<path d="M33.3333 6.66663H6.66659C4.83325 6.66663 3.34992 8.16663 3.34992 9.99996L3.33325 30C3.33325 31.8333 4.83325 33.3333 6.66659 33.3333H33.3333C35.1666 33.3333 36.6666 31.8333 36.6666 30V9.99996C36.6666 8.16663 35.1666 6.66663 33.3333 6.66663ZM32.6666 13.75L20.8833 21.1166C20.3499 21.45 19.6499 21.45 19.1166 21.1166L7.33325 13.75C7.16613 13.6561 7.01978 13.5294 6.90307 13.3774C6.78635 13.2254 6.70169 13.0513 6.65421 12.8656C6.60673 12.6799 6.59742 12.4865 6.62685 12.2971C6.65627 12.1078 6.72381 11.9263 6.82539 11.7638C6.92696 11.6013 7.06046 11.4611 7.2178 11.3516C7.37513 11.2422 7.55304 11.1658 7.74074 11.1271C7.92845 11.0884 8.12206 11.0882 8.30984 11.1265C8.49763 11.1648 8.67569 11.2408 8.83325 11.35L19.9999 18.3333L31.1666 11.35C31.3241 11.2408 31.5022 11.1648 31.69 11.1265C31.8778 11.0882 32.0714 11.0884 32.2591 11.1271C32.4468 11.1658 32.6247 11.2422 32.782 11.3516C32.9394 11.4611 33.0729 11.6013 33.1744 11.7638C33.276 11.9263 33.3436 12.1078 33.373 12.2971C33.4024 12.4865 33.3931 12.6799 33.3456 12.8656C33.2981 13.0513 33.2135 13.2254 33.0968 13.3774C32.9801 13.5294 32.8337 13.6561 32.6666 13.75Z" fill="#4E4331"/>
</svg>
