<svg width="891" height="481" viewBox="0 0 891 481" fill="none" xmlns="http://www.w3.org/2000/svg">
<line x1="54.617" y1="405.546" x2="80.3285" y2="374.904" stroke="#B59F93"/>
<line x1="81.4402" y1="372.679" x2="107.152" y2="403.32" stroke="#B59F93"/>
<line x1="106.674" y1="403.32" x2="132.386" y2="372.679" stroke="#B59F93"/>
<line x1="158.674" y1="403.32" x2="184.386" y2="372.679" stroke="#B59F93"/>
<line x1="210.674" y1="403.32" x2="236.386" y2="372.679" stroke="#B59F93"/>
<line x1="133.44" y1="372.679" x2="159.152" y2="403.32" stroke="#B59F93"/>
<line x1="185.44" y1="372.679" x2="211.152" y2="403.32" stroke="#B59F93"/>
<line x1="237.44" y1="372.679" x2="263.152" y2="403.32" stroke="#B59F93"/>
<path d="M77.8452 293.841V257.176L147.78 147.182H181.05V196.068H162.038L124.355 255.818V257.176H227.56V293.841H77.8452ZM162.378 321V282.638L163.396 266.682V147.182H207.53V321H162.378Z" fill="#5C331D"/>
<path d="M546.845 293.841V257.176L616.78 147.182H650.05V196.068H631.038L593.355 255.818V257.176H696.56V293.841H546.845ZM631.378 321V282.638L632.396 266.682V147.182H676.53V321H631.378Z" fill="#5C331D"/>
<path d="M519 346L457.234 284.234M457.234 284.234C467.799 273.668 476.18 261.125 481.898 247.321C487.616 233.517 490.559 218.721 490.559 203.779C490.559 188.838 487.616 174.042 481.898 160.238C476.18 146.434 467.799 133.891 457.234 123.325C446.668 112.76 434.125 104.379 420.321 98.6609C406.517 92.943 391.721 90 376.779 90C361.838 90 347.042 92.943 333.238 98.6609C319.434 104.379 306.891 112.76 296.325 123.325C274.987 144.663 263 173.603 263 203.779C263 233.956 274.987 262.896 296.325 284.234C317.663 305.571 346.603 317.559 376.779 317.559C406.956 317.559 435.896 305.571 457.234 284.234Z" stroke="#5C331D" stroke-width="15" stroke-linecap="round" stroke-linejoin="round"/>
<circle cx="814.793" cy="217.41" r="21.4098" fill="#B59F93" fill-opacity="0.5"/>
<circle cx="759.128" cy="213.128" r="17.1278" fill="#4E4231" fill-opacity="0.5"/>
<circle cx="776.256" cy="255.948" r="17.1278" fill="#F5F5F5" fill-opacity="0.5"/>
<path d="M703.5 43.5C715.109 43.5 724.5 52.6892 724.5 64C724.5 75.3108 715.109 84.5 703.5 84.5C691.891 84.5 682.5 75.3108 682.5 64C682.5 52.6892 691.891 43.5 703.5 43.5Z" stroke="#D5C9C3"/>
<circle cx="699" cy="120" r="16.5" stroke="black"/>
<path d="M742 85.5C751.099 85.5 758.5 93.0974 758.5 102.5C758.5 111.903 751.099 119.5 742 119.5C732.901 119.5 725.5 111.903 725.5 102.5C725.5 93.0974 732.901 85.5 742 85.5Z" stroke="#F4F4F4"/>
<path d="M707.5 344.5C719.109 344.5 728.5 353.689 728.5 365C728.5 376.311 719.109 385.5 707.5 385.5C695.891 385.5 686.5 376.311 686.5 365C686.5 353.689 695.891 344.5 707.5 344.5Z" stroke="#D5C9C3"/>
<circle cx="703" cy="421" r="16.5" stroke="black"/>
<path d="M746 386.5C755.099 386.5 762.5 394.097 762.5 403.5C762.5 412.903 755.099 420.5 746 420.5C736.901 420.5 729.5 412.903 729.5 403.5C729.5 394.097 736.901 386.5 746 386.5Z" stroke="#F4F4F4"/>
<path d="M0 4.99999C0 2.23857 2.23858 0 5 0L811 0C855.183 0 891 35.8172 891 80V476C891 478.761 888.761 481 886 481H80C35.8172 481 0 445.183 0 401L0 4.99999Z" fill="#B59F93" fill-opacity="0.33"/>
</svg>
