<svg width="80" height="81" viewBox="0 0 80 81" fill="none" xmlns="http://www.w3.org/2000/svg">
<path d="M28 7C25.3478 7 22.8043 8.05357 20.9289 9.92893C19.0536 11.8043 18 14.3478 18 17C18 19.6522 19.0536 22.1957 20.9289 24.0711C22.8043 25.9464 25.3478 27 28 27H51.3333C53.9855 27 56.529 25.9464 58.4044 24.0711C60.2798 22.1957 61.3333 19.6522 61.3333 17C61.3333 14.3478 60.2798 11.8043 58.4044 9.92893C56.529 8.05357 53.9855 7 51.3333 7H28ZM51.3333 30.3333C48.6812 30.3333 46.1376 31.3869 44.2623 33.2623C42.3869 35.1376 41.3333 37.6812 41.3333 40.3333C41.3333 42.9855 42.3869 45.529 44.2623 47.4044C46.1376 49.2798 48.6812 50.3333 51.3333 50.3333C53.9855 50.3333 56.529 49.2798 58.4044 47.4044C60.2798 45.529 61.3333 42.9855 61.3333 40.3333C61.3333 37.6812 60.2798 35.1376 58.4044 33.2623C56.529 31.3869 53.9855 30.3333 51.3333 30.3333ZM18 40.3333C18 37.6812 19.0536 35.1376 20.9289 33.2623C22.8043 31.3869 25.3478 30.3333 28 30.3333H38V50.3333H28C25.3478 50.3333 22.8043 49.2798 20.9289 47.4044C19.0536 45.529 18 42.9855 18 40.3333ZM28 53.6667C26.0222 53.6667 24.0888 54.2532 22.4443 55.352C20.7998 56.4508 19.5181 58.0126 18.7612 59.8398C18.0043 61.6671 17.8063 63.6778 18.1922 65.6176C18.578 67.5574 19.5304 69.3392 20.9289 70.7377C22.3275 72.1363 24.1093 73.0887 26.0491 73.4745C27.9889 73.8604 29.9996 73.6623 31.8268 72.9055C33.6541 72.1486 35.2159 70.8669 36.3147 69.2224C37.4135 67.5779 38 65.6445 38 63.6667V53.6667H28Z" fill="#282119"/>
</svg>
