<svg width="72" height="72" viewBox="0 0 72 72" fill="none" xmlns="http://www.w3.org/2000/svg">
<path fill-rule="evenodd" clip-rule="evenodd" d="M38.3704 2.18744C37.9943 1.81099 37.5477 1.51236 37.0561 1.30862C36.5645 1.10487 36.0376 1 35.5054 1C34.9733 1 34.4464 1.10487 33.9548 1.30862C33.4632 1.51236 33.0165 1.81099 32.6404 2.18744L24.2254 10.6084C24.8824 11.2324 25.5154 11.8384 25.8454 12.1684L32.5954 18.9184C33.855 18.3169 35.2701 18.1206 36.6459 18.3566C38.0216 18.5927 39.2904 19.2494 40.2774 20.2365C41.2644 21.2235 41.9212 22.4922 42.1572 23.868C42.3933 25.2437 42.197 26.6588 41.5954 27.9184L45.3454 31.6684C46.7822 30.9818 48.4155 30.8253 49.9566 31.2266C51.4976 31.6278 52.8472 32.5609 53.7667 33.8611C54.6862 35.1612 55.1165 36.7445 54.9815 38.3312C54.8464 39.9179 54.1548 41.4057 53.0287 42.5317C51.9027 43.6578 50.4149 44.3494 48.8282 44.4845C47.2415 44.6195 45.6582 44.1892 44.3581 43.2697C43.0579 42.3502 42.1248 41.0006 41.7236 39.4596C41.3223 37.9185 41.4788 36.2852 42.1654 34.8484L38.4154 31.1044C38.201 31.2074 37.9806 31.2976 37.7554 31.3744V42.6454C39.2575 43.1762 40.5235 44.221 41.3298 45.595C42.136 46.969 42.4305 48.5838 42.1613 50.154C41.892 51.7242 41.0763 53.1486 39.8583 54.1755C38.6403 55.2023 37.0985 55.7656 35.5054 55.7656C33.9123 55.7656 32.3705 55.2023 31.1526 54.1755C29.9346 53.1486 29.1189 51.7242 28.8496 50.154C28.5803 48.5838 28.8748 46.969 29.6811 45.595C30.4873 44.221 31.7534 43.1762 33.2554 42.6454V31.3774C32.3624 31.0619 31.5457 30.562 30.8585 29.9102C30.1713 29.2583 29.629 28.4692 29.2668 27.594C28.9046 26.7188 28.7307 25.7772 28.7563 24.8304C28.7819 23.8836 29.0065 22.9528 29.4154 22.0984L22.6654 15.3484C22.4434 15.1294 21.7954 14.4514 21.1054 13.7254L2.18744 32.6434C1.81099 33.0195 1.51236 33.4662 1.30862 33.9578C1.10487 34.4494 1 34.9763 1 35.5084C1 36.0406 1.10487 36.5675 1.30862 37.0591C1.51236 37.5507 1.81099 37.9973 2.18744 38.3734L32.6404 68.8234C33.0165 69.1999 33.4632 69.4985 33.9548 69.7022C34.4464 69.906 34.9733 70.0108 35.5054 70.0108C36.0376 70.0108 36.5645 69.906 37.0561 69.7022C37.5477 69.4985 37.9943 69.1999 38.3704 68.8234L68.8234 38.3734C69.1999 37.9973 69.4985 37.5507 69.7022 37.0591C69.906 36.5675 70.0108 36.0406 70.0108 35.5084C70.0108 34.9763 69.906 34.4494 69.7022 33.9578C69.4985 33.4662 69.1999 33.0195 68.8234 32.6434L38.3704 2.18744ZM35.5054 46.7584C34.9087 46.7584 34.3364 46.9955 33.9144 47.4174C33.4925 47.8394 33.2554 48.4117 33.2554 49.0084C33.2554 49.6052 33.4925 50.1775 33.9144 50.5994C34.3364 51.0214 34.9087 51.2584 35.5054 51.2584C36.1022 51.2584 36.6745 51.0214 37.0964 50.5994C37.5184 50.1775 37.7554 49.6052 37.7554 49.0084C37.7554 48.4117 37.5184 47.8394 37.0964 47.4174C36.6745 46.9955 36.1022 46.7584 35.5054 46.7584ZM37.7554 25.0084C37.7554 25.6052 37.5184 26.1775 37.0964 26.5994C36.6745 27.0214 36.1022 27.2584 35.5054 27.2584C34.9087 27.2584 34.3364 27.0214 33.9144 26.5994C33.4925 26.1775 33.2554 25.6052 33.2554 25.0084C33.2554 24.4117 33.4925 23.8394 33.9144 23.4174C34.3364 22.9955 34.9087 22.7584 35.5054 22.7584C36.1022 22.7584 36.6745 22.9955 37.0964 23.4174C37.5184 23.8394 37.7554 24.4117 37.7554 25.0084ZM46.0054 37.7584C46.0054 37.1617 46.2425 36.5894 46.6644 36.1674C47.0864 35.7455 47.6587 35.5084 48.2554 35.5084C48.8522 35.5084 49.4245 35.7455 49.8464 36.1674C50.2684 36.5894 50.5054 37.1617 50.5054 37.7584C50.5054 38.3552 50.2684 38.9275 49.8464 39.3494C49.4245 39.7714 48.8522 40.0084 48.2554 40.0084C47.6587 40.0084 47.0864 39.7714 46.6644 39.3494C46.2425 38.9275 46.0054 38.3552 46.0054 37.7584Z" fill="#282119"/>
</svg>
