<svg width="75" height="76" viewBox="0 0 75 76" fill="none" xmlns="http://www.w3.org/2000/svg">
<mask id="mask0_44_106" style="mask-type:luminance" maskUnits="userSpaceOnUse" x="0" y="0" width="75" height="76">
<path d="M0 0H75V76H0V0Z" fill="white"/>
</mask>
<g mask="url(#mask0_44_106)">
<path d="M15.875 0H19.2563V3.38517H22.35V0H25.7313V10.2473H22.35V6.81783H19.2563V10.2473H15.8781L15.875 0ZM30.175 3.39783H27.2V0H36.5344V3.39783H33.5562V10.2473H30.175V3.39783ZM38.0156 0H41.5406L43.7094 3.6005L45.875 0H49.4V10.2473H46.0344V5.168L43.7094 8.81283H43.65L41.3219 5.17117V10.2473H38.0156V0ZM51.0813 0H54.4656V6.86217H59.2156V10.2505H51.0813V0Z" fill="#282119"/>
<path fill-rule="evenodd" clip-rule="evenodd" d="M15.7688 69.8946L9.375 14.9371H65.625L59.2281 69.8883L37.4688 76L15.7688 69.8946ZM28.6969 39.8113L28.0906 32.908H53.5438L54.1375 26.1693H20.825L22.6187 46.5531H45.6719L44.9 55.2931L37.4813 57.3261H37.475L30.0687 55.2995L29.5938 49.9256H22.9125L23.8438 60.5086L37.4688 64.3403L51.1156 60.5086L52.7781 41.6226L52.9406 39.8145L28.6969 39.8113Z" fill="#282119"/>
</g>
</svg>
