<svg width="80" height="80" viewBox="0 0 80 80" fill="none" xmlns="http://www.w3.org/2000/svg">
<path d="M10 10V70H70V10H10ZM42.71 56.7433C42.71 62.6433 39.2267 65.3567 34.1933 65.3567C29.7433 65.3567 27.1267 63.0333 25.7733 60.13L30.42 57.2267C31.1933 58.87 32.0633 60.1267 34.0967 60.1267C36.03 60.1267 37.0967 59.45 37.0967 56.55V37.5833H42.71V56.7433ZM56.0633 65.3567C50.84 65.3567 47.4533 62.7433 45.71 59.6467L50.3567 56.9367C51.6133 58.87 53.2567 60.3233 55.9667 60.3233C58.29 60.3233 59.7433 59.2567 59.7433 57.42C59.7433 55.4867 58.29 54.8067 55.6767 53.6433L54.3233 53.0633C50.2567 51.42 47.5467 49.0967 47.5467 44.45C47.5467 40.1933 50.6467 37.0967 55.7733 37.0967C59.3567 37.0967 61.8733 38.3567 63.7067 41.6433L59.3567 44.5467C58.39 42.9033 57.42 42.13 55.6767 42.13C54.0333 42.13 52.9667 43.1967 52.9667 44.55C52.9667 46.1933 54.0333 46.87 56.3567 47.9367L57.71 48.5167C62.45 50.55 65.2567 52.5833 65.2567 57.4167C65.3567 62.55 61.39 65.3567 56.0633 65.3567Z" fill="#282119"/>
</svg>
