<svg width="169" height="49" viewBox="0 0 169 49" fill="none" xmlns="http://www.w3.org/2000/svg">
<path d="M3.008 48.336C2.208 48.336 1.472 48.224 0.8 48V13.344C1.184 13.184 1.568 13.088 1.952 13.056C2.336 13.024 2.656 13.008 2.912 13.008C3.264 13.008 3.632 13.024 4.016 13.056C4.432 13.088 4.832 13.184 5.216 13.344L16.976 36.624L28.688 13.344C29.104 13.184 29.488 13.088 29.84 13.056C30.192 13.024 30.496 13.008 30.752 13.008C31.104 13.008 31.488 13.024 31.904 13.056C32.32 13.088 32.704 13.184 33.056 13.344V48C32.288 48.224 31.536 48.336 30.8 48.336C30 48.336 29.264 48.224 28.592 48V22.944L18.944 42.096C18.4 42.32 17.744 42.432 16.976 42.432C16.208 42.432 15.536 42.32 14.96 42.096L5.264 22.896V48C4.496 48.224 3.744 48.336 3.008 48.336ZM40.8834 48.192C40.1474 47.936 39.5074 47.552 38.9634 47.04C38.4514 46.496 38.1154 45.856 37.9554 45.12C38.5314 44.576 39.2034 43.888 39.9714 43.056C40.7394 42.224 41.4914 41.232 42.2274 40.08C42.9634 38.896 43.5714 37.568 44.0514 36.096C44.5634 34.624 44.8194 32.976 44.8194 31.152V25.344C45.1074 25.248 45.4434 25.168 45.8274 25.104C46.2114 25.04 46.6114 25.008 47.0274 25.008C47.7634 25.008 48.4834 25.12 49.1874 25.344V39.6C49.1874 41.36 49.4114 42.624 49.8594 43.392C50.3394 44.16 51.0914 44.544 52.1154 44.544C52.5634 44.544 52.8994 44.736 53.1234 45.12C53.3794 45.504 53.5074 46.016 53.5074 46.656C53.5074 47.168 53.3634 47.632 53.0754 48.048C52.8194 48.464 52.3874 48.672 51.7794 48.672C48.1954 48.672 45.9874 46.96 45.1554 43.536C43.8114 45.584 42.3874 47.136 40.8834 48.192ZM47.0754 18.432C46.1794 18.432 45.4114 18.112 44.7714 17.472C44.1314 16.832 43.8114 16.064 43.8114 15.168C43.8114 14.208 44.1154 13.424 44.7234 12.816C45.3634 12.208 46.1474 11.904 47.0754 11.904C48.0354 11.904 48.8194 12.208 49.4274 12.816C50.0354 13.424 50.3394 14.208 50.3394 15.168C50.3394 16.096 50.0194 16.88 49.3794 17.52C48.7714 18.128 48.0034 18.432 47.0754 18.432ZM51.7722 48.672C51.3562 48.672 51.0202 48.48 50.7642 48.096C50.5082 47.712 50.3802 47.216 50.3802 46.608C50.3802 45.968 50.5402 45.472 50.8602 45.12C51.1482 44.736 51.5482 44.544 52.0602 44.544C53.0843 44.544 54.1883 44.176 55.3723 43.44C56.5563 42.704 57.7083 41.696 58.8283 40.416C58.5723 39.232 58.3643 37.84 58.2043 36.24C58.0763 34.64 57.9803 32.704 57.9163 30.432C57.8523 28.16 57.8203 25.424 57.8203 22.224H57.8683L57.8203 22.176C57.8203 19.328 57.8523 16.912 57.9163 14.928C57.9803 12.944 58.1083 11.28 58.3003 9.936C58.4923 8.592 58.7323 7.456 59.0203 6.528C59.3403 5.568 59.7403 4.704 60.2203 3.936C60.9243 2.784 61.7883 1.952 62.8123 1.44C63.8683 0.927998 65.0203 0.671997 66.2682 0.671997C68.7643 0.671997 70.6843 1.776 72.0283 3.984C73.3723 6.192 74.0443 9.232 74.0443 13.104C74.0443 17.744 73.1323 22.512 71.3083 27.408C69.4843 32.304 66.8763 36.976 63.4843 41.424C63.9323 42.48 64.5883 43.28 65.4523 43.824C66.3163 44.336 67.3083 44.592 68.4283 44.592C68.8763 44.592 69.2283 44.784 69.4843 45.168C69.7723 45.52 69.9163 46.016 69.9163 46.656C69.9163 48 69.3243 48.672 68.1403 48.672C66.4123 48.672 64.8763 48.304 63.5323 47.568C62.1883 46.832 61.1483 45.888 60.4123 44.736C57.7563 47.36 54.8763 48.672 51.7722 48.672ZM62.0923 22.464C62.0923 25.824 62.1083 28.592 62.1403 30.768C62.2043 32.944 62.2843 34.736 62.3803 36.144C64.8123 32.112 66.6523 28.176 67.9003 24.336C69.1483 20.464 69.7723 16.704 69.7723 13.056C69.7723 10.4 69.4683 8.368 68.8603 6.96C68.2523 5.52 67.3883 4.8 66.2682 4.8C65.0203 4.8 64.0763 5.536 63.4363 7.008C63.1163 7.776 62.8443 8.752 62.6203 9.936C62.4283 11.088 62.2843 12.656 62.1883 14.64C62.1243 16.624 62.0923 19.232 62.0923 22.464ZM68.2077 48.672C67.7917 48.672 67.4397 48.48 67.1517 48.096C66.8637 47.712 66.7197 47.248 66.7197 46.704C66.7197 46.032 66.8797 45.52 67.1997 45.168C67.4877 44.784 67.8877 44.592 68.3997 44.592C69.9037 44.592 71.4237 44.4 72.9597 44.016C74.4638 43.632 76.0798 42.944 77.8078 41.952C76.8478 39.84 76.3678 37.472 76.3678 34.848C76.3678 32.896 76.7358 31.168 77.4718 29.664C78.2398 28.128 79.2638 26.912 80.5438 26.016C81.8558 25.12 83.3278 24.672 84.9598 24.672C86.3358 24.672 87.5678 24.992 88.6558 25.632C89.7438 26.272 90.6078 27.136 91.2478 28.224C91.8878 29.312 92.2078 30.544 92.2078 31.92C92.2078 33.968 91.4878 35.92 90.0478 37.776C88.6078 39.632 86.5118 41.376 83.7598 43.008C85.0078 44.064 86.7358 44.592 88.9438 44.592C89.3598 44.592 89.6958 44.784 89.9518 45.168C90.2398 45.552 90.3838 46.064 90.3838 46.704C90.3838 47.312 90.2238 47.792 89.9038 48.144C89.6158 48.496 89.2158 48.672 88.7038 48.672C86.9118 48.672 85.2638 48.384 83.7598 47.808C82.2558 47.2 81.0238 46.368 80.0638 45.312C75.9678 47.552 72.0157 48.672 68.2077 48.672ZM80.4958 34.704C80.4958 36.816 80.8798 38.512 81.6478 39.792C85.9038 37.328 88.0318 34.704 88.0318 31.92C88.0318 30.896 87.7598 30.096 87.2158 29.52C86.6718 28.944 85.9198 28.656 84.9598 28.656C83.6798 28.656 82.6078 29.232 81.7438 30.384C80.9118 31.504 80.4958 32.944 80.4958 34.704ZM88.6452 48.672C88.2292 48.672 87.8932 48.48 87.6372 48.096C87.3812 47.712 87.2532 47.216 87.2532 46.608C87.2532 45.968 87.4132 45.472 87.7332 45.12C88.0212 44.768 88.4212 44.592 88.9332 44.592C90.8852 44.592 92.5492 44 93.9253 42.816C95.3333 41.632 96.7733 39.584 98.2453 36.672L100.933 31.44C102.245 28.88 103.493 27.12 104.677 26.16C105.861 25.168 107.237 24.672 108.805 24.672C110.245 24.672 111.461 25.104 112.453 25.968C113.445 26.8 114.133 27.936 114.517 29.376C115.413 27.872 116.565 26.72 117.973 25.92C119.381 25.088 120.949 24.672 122.677 24.672C125.173 24.672 127.093 25.488 128.437 27.12C129.813 28.752 130.501 31.04 130.501 33.984V39.6C130.501 41.36 130.725 42.624 131.173 43.392C131.653 44.16 132.405 44.544 133.429 44.544C133.877 44.544 134.213 44.736 134.437 45.12C134.693 45.504 134.821 46.016 134.821 46.656C134.821 47.168 134.677 47.632 134.389 48.048C134.133 48.464 133.701 48.672 133.093 48.672C128.453 48.672 126.133 45.824 126.133 40.128V33.984C126.133 30.528 124.773 28.8 122.053 28.8C120.645 28.8 119.397 29.36 118.309 30.48C117.253 31.6 116.421 33.152 115.813 35.136C115.237 37.12 114.949 39.424 114.949 42.048V48C114.629 48.096 114.277 48.176 113.893 48.24C113.509 48.304 113.141 48.336 112.789 48.336C112.021 48.336 111.301 48.224 110.629 48V32.688C110.629 31.44 110.469 30.48 110.149 29.808C109.829 29.136 109.253 28.8 108.421 28.8C107.781 28.8 107.173 29.2 106.597 30C106.053 30.768 105.365 31.968 104.533 33.6L101.221 39.984C99.6853 42.928 97.8933 45.12 95.8453 46.56C93.8292 47.968 91.4292 48.672 88.6452 48.672ZM133.436 44.544C134.524 44.544 135.58 44.016 136.604 42.96C137.66 41.872 138.54 40.416 139.244 38.592C139.212 38.144 139.196 37.696 139.196 37.248C139.196 34.816 139.676 32.656 140.636 30.768C141.596 28.88 142.892 27.392 144.524 26.304C146.188 25.216 148.076 24.672 150.188 24.672C151.308 24.672 152.412 24.896 153.5 25.344C154.588 25.76 155.5 26.336 156.236 27.072V25.104C156.524 25.008 156.86 24.928 157.244 24.864C157.628 24.8 158.028 24.768 158.444 24.768C159.212 24.768 159.932 24.88 160.604 25.104V39.168C160.604 40.864 160.86 42.192 161.372 43.152C161.916 44.08 162.812 44.544 164.06 44.544C164.412 44.544 164.796 44.464 165.212 44.304C165.628 44.144 166.06 43.904 166.508 43.584C167.052 43.84 167.5 44.288 167.852 44.928C168.204 45.536 168.364 46.144 168.332 46.752C167.82 47.328 167.164 47.792 166.364 48.144C165.564 48.496 164.7 48.672 163.772 48.672H163.724C160.588 48.672 158.492 47.264 157.436 44.448C156.508 45.76 155.34 46.8 153.932 47.568C152.556 48.304 151.02 48.672 149.324 48.672C147.468 48.672 145.82 48.272 144.38 47.472C142.972 46.64 141.82 45.504 140.924 44.064C138.94 47.136 136.332 48.672 133.1 48.672C132.684 48.672 132.348 48.48 132.092 48.096C131.836 47.712 131.708 47.216 131.708 46.608C131.708 45.232 132.284 44.544 133.436 44.544ZM143.66 37.248C143.66 39.52 144.172 41.312 145.196 42.624C146.252 43.904 147.692 44.544 149.516 44.544C151.532 44.544 153.148 43.856 154.364 42.48C155.612 41.104 156.236 39.296 156.236 37.056V31.68C155.596 30.816 154.78 30.128 153.788 29.616C152.796 29.072 151.772 28.8 150.716 28.8C149.34 28.8 148.124 29.168 147.068 29.904C146.012 30.64 145.18 31.648 144.572 32.928C143.964 34.176 143.66 35.616 143.66 37.248Z" fill="#5C331D"/>
</svg>
