<svg width="90" height="91" viewBox="0 0 90 91" fill="none" xmlns="http://www.w3.org/2000/svg">
<path d="M45.3125 37.9764C49.175 37.9764 52.325 41.1264 52.325 45.0639C52.325 48.8139 49.175 52.0014 45.3125 52.0014C41.45 52.0014 38.3 48.8139 38.3 45.0639C38.3 41.1264 41.45 37.9764 45.3125 37.9764ZM27.95 75.0639C30.3125 76.4889 35.4875 74.3139 41.45 68.6889C39.5 66.4764 37.5875 64.0764 35.7875 61.5639C32.7658 61.2726 29.7617 60.8219 26.7875 60.2139C24.875 68.2389 25.5875 73.7514 27.95 75.0639ZM30.6125 53.5389L29.525 51.6264C29.1125 52.7139 28.7 53.8014 28.4375 54.8514C29.45 55.0764 30.575 55.2639 31.7375 55.4514L30.6125 53.5389ZM55.1375 50.6889L58.175 45.0639L55.1375 39.4389C54.0125 37.4514 52.8125 35.6889 51.725 33.9264C49.7 33.8139 47.5625 33.8139 45.3125 33.8139C43.0625 33.8139 40.925 33.8139 38.9 33.9264C37.8125 35.6889 36.6125 37.4514 35.4875 39.4389L32.45 45.0639L35.4875 50.6889C36.6125 52.6764 37.8125 54.4389 38.9 56.2014C40.925 56.3139 43.0625 56.3139 45.3125 56.3139C47.5625 56.3139 49.7 56.3139 51.725 56.2014C52.8125 54.4389 54.0125 52.6764 55.1375 50.6889ZM45.3125 25.4889C44.6 26.3139 43.85 27.1764 43.1 28.1889H47.525C46.775 27.1764 46.025 26.3139 45.3125 25.4889ZM45.3125 64.6389C46.025 63.8139 46.775 62.9514 47.525 61.9389H43.1C43.85 62.9514 44.6 63.8139 45.3125 64.6389ZM62.6375 15.0639C60.3125 13.6389 55.1375 15.8139 49.175 21.4389C51.125 23.6514 53.0375 26.0514 54.8375 28.5639C57.9125 28.8639 60.95 29.3139 63.8375 29.9139C65.75 21.8889 65.0375 16.3764 62.6375 15.0639ZM60.0125 36.5889L61.1 38.5014C61.5125 37.4139 61.925 36.3264 62.1875 35.2764C61.175 35.0514 60.05 34.8639 58.8875 34.6764L60.0125 36.5889ZM65.45 10.1514C70.9625 13.3014 71.5625 21.5889 69.2375 31.2639C78.7625 34.0764 85.625 38.7264 85.625 45.0639C85.625 51.4014 78.7625 56.0514 69.2375 58.8639C71.5625 68.5389 70.9625 76.8264 65.45 79.9764C59.975 83.1264 52.5125 79.5264 45.3125 72.6639C38.1125 79.5264 30.65 83.1264 25.1375 79.9764C19.6625 76.8264 19.0625 68.5389 21.3875 58.8639C11.8625 56.0514 5 51.4014 5 45.0639C5 38.7264 11.8625 34.0764 21.3875 31.2639C19.0625 21.5889 19.6625 13.3014 25.1375 10.1514C30.65 7.00137 38.1125 10.6014 45.3125 17.4639C52.5125 10.6014 59.975 7.00137 65.45 10.1514ZM64.3625 45.0639C65.6375 47.8764 66.7625 50.6889 67.7 53.5389C75.575 51.1764 80 47.8014 80 45.0639C80 42.3264 75.575 38.9514 67.7 36.5889C66.7625 39.4389 65.6375 42.2514 64.3625 45.0639ZM26.2625 45.0639C24.9875 42.2514 23.8625 39.4389 22.925 36.5889C15.05 38.9514 10.625 42.3264 10.625 45.0639C10.625 47.8014 15.05 51.1764 22.925 53.5389C23.8625 50.6889 24.9875 47.8764 26.2625 45.0639ZM60.0125 53.5389L58.8875 55.4514C60.05 55.2639 61.175 55.0764 62.1875 54.8514C61.925 53.8014 61.5125 52.7139 61.1 51.6264L60.0125 53.5389ZM49.175 68.6889C55.1375 74.3139 60.3125 76.4889 62.6375 75.0639C65.0375 73.7514 65.75 68.2389 63.8375 60.2139C60.95 60.8139 57.9125 61.2639 54.8375 61.5639C53.0375 64.0764 51.125 66.4764 49.175 68.6889ZM30.6125 36.5889L31.7375 34.6764C30.575 34.8639 29.45 35.0514 28.4375 35.2764C28.7 36.3264 29.1125 37.4139 29.525 38.5014L30.6125 36.5889ZM41.45 21.4389C35.4875 15.8139 30.3125 13.6389 27.95 15.0639C25.5875 16.3764 24.875 21.8889 26.7875 29.9139C29.7617 29.3058 32.7658 28.8552 35.7875 28.5639C37.5875 26.0514 39.5 23.6514 41.45 21.4389Z" fill="#282119"/>
</svg>
