<svg width="65" height="65" viewBox="0 0 65 65" fill="none" xmlns="http://www.w3.org/2000/svg">
<mask id="mask0_44_130" style="mask-type:luminance" maskUnits="userSpaceOnUse" x="0" y="0" width="65" height="65">
<path d="M0 0H65V65H0V0Z" fill="white"/>
</mask>
<g mask="url(#mask0_44_130)">
<path d="M63.4535 9.50379e-06H1.54375C1.3408 9.19146e-06 1.13983 0.040029 0.952358 0.117779C0.764885 0.195529 0.594584 0.309483 0.451198 0.45312C0.307812 0.596758 0.194156 0.767259 0.116735 0.954869C0.0393138 1.14248 -0.000353683 1.34351 2.38013e-06 1.54647V63.4563C-0.000354397 63.6594 0.0394024 63.8607 0.116993 64.0485C0.194583 64.2363 0.308481 64.4069 0.452154 64.5506C0.595827 64.6942 0.766449 64.8081 0.954235 64.8857C1.14202 64.9633 1.34328 65.0031 1.54646 65.0027H63.4562C63.6594 65.0031 63.8607 64.9633 64.0485 64.8857C64.2363 64.8081 64.4069 64.6942 64.5506 64.5506C64.6942 64.4069 64.8081 64.2363 64.8857 64.0485C64.9633 63.8607 65.0031 63.6594 65.0027 63.4563V1.54376C65.0027 1.34057 64.9626 1.13939 64.8847 0.951738C64.8068 0.764088 64.6926 0.593665 64.5486 0.450244C64.4047 0.306822 64.2339 0.193224 64.046 0.115962C63.858 0.0387007 63.6567 -0.000703425 63.4535 9.50379e-06ZM38.6913 34.7371H30.9535V58.8088H24.7623V34.7371H17.0246V29.4044H38.6913V34.7371ZM40.4246 57.4329V51.0006C40.4246 51.0006 43.94 53.6494 48.1569 53.6494C52.3737 53.6494 52.2112 50.8923 52.2112 50.5131C52.2112 46.5129 40.2621 46.5129 40.2621 37.6458C40.2621 25.5883 57.674 30.3469 57.674 30.3469L57.4573 36.0777C57.4573 36.0777 54.5377 34.1304 51.239 34.1304C47.9402 34.1304 46.7512 35.7013 46.7512 37.375C46.7512 41.7002 58.8088 41.2696 58.8088 49.9742C58.8088 63.3804 40.4246 57.4356 40.4246 57.4356" fill="#282119"/>
</g>
</svg>
